<?xml version="1.0" encoding="utf-8"?>
<!-- Generator: Adobe Illustrator 25.2.0, SVG Export Plug-In . SVG Version: 6.00 Build 0)  -->
<svg version="1.1" id="Layer_1" xmlns="http://www.w3.org/2000/svg" xmlns:xlink="http://www.w3.org/1999/xlink" x="0px" y="0px"
	 viewBox="0 0 360 360" style="enable-background:new 0 0 360 360;" xml:space="preserve">
<g>
	<path d="M305.68,177.23c-7.61-0.07-10.99,2.05-10.99,4.37c0,2.05,2.52,2.98,10.52,4.96c1.19,0.33,7.35,1.85,8.6,2.12
		c5.85,1.36,10.26,3.66,13.19,6.57v-16.76l-5.71,5.62C318.12,180.4,311.56,177.23,305.68,177.23z"/>
	<g>
		<path d="M114.07,156.36c-2.37-4.95-5.89-7.32-12-7.32H90.96l0.38,0.44v17.16h27.58L114.07,156.36z"/>
		<path d="M161.55,146.01c0-10.18-4.4-19.42-16.18-19.42c-11.61,0-16.18,8.97-16.18,19.42c0,10.34,4.62,18.87,16.18,18.87
			C157.04,164.89,161.55,156.36,161.55,146.01z"/>
		<path d="M90.96,145.35h14.8c6.66,0,10.84-3.63,10.84-9.02c0-6.71-4.62-9.19-10.29-9.19H90.96l0.38,0.44v17.39L90.96,145.35z"/>
		<path d="M52.07,146.73h16.18c6.77,0,10.01-4.18,10.01-9.79c0-5.83-3.3-9.79-10.01-9.79H52.07l0.39,0.39v18.82L52.07,146.73z"/>
		<path d="M305.87,165.98c8.48,0,15.67,2.42,21.13,6.55V16.78h-86.69c0,0.07,0,0.13,0,0.2c0,46.3-27.07,83.83-60.47,83.83
			s-60.47-37.53-60.47-83.83c0-0.07,0-0.13,0-0.2H32.69v149.86H48.6v-43.19h19.7c9.08,0,13.98,5.61,13.98,13.48
			c0,7.54-4.9,13.48-14.03,13.48H52.07l0.39,0.44v15.78h24v11.32H57.26l0.66,1.19v41.1H45.02v-41.1l0.66-1.19H32.69v64.81h68.01
			v68.11h79.13h0.03h79.13v-68.11H327v-28.22c-3.93,3.8-10.66,6.36-20.47,6.36c-10.12,0-19.33-3.31-25.94-9.4l8.8-8.87
			c4.37,4.24,12.11,6.95,18.27,6.95c7.81,0,10.46-1.99,10.46-4.7c0-1.06-0.99-3.57-7.88-5.23c-1.19-0.26-8.74-2.05-9.93-2.38
			c-9.53-2.32-18.73-5.89-18.73-15.35c0-6.64,4.81-12.16,13.55-14.6v-39.8l0.27-0.39h-16.23v-3.69h35.77v3.69h-16.23l0.28,0.39
			v38.98C301.11,166.17,303.4,165.98,305.87,165.98z M129.72,220.24H79.09v-8.87l26.8-28.72l5.63-4.57v-0.13H79.76v-11.32h7.74
			v-43.19h18.82c7.92,0,14.31,4.29,14.31,12.88c0,5.67-3.25,9.9-9.46,11.72v0.11c3.03,1.21,5.01,3.47,6.44,6.49l5.82,11.99h5.98v8.8
			l-27,29.05l-5.03,4.3v0.13h32.36V220.24z M202.51,177.96h-19.19l0.66,1.19v41.1h-12.91v-41.1l0.66-1.19h-19.19V167.5
			c-1.53,0.5-3.18,0.83-4.96,0.98v51.77h-12.91v-53.61h1.27c-7.09-3.31-10.77-10.71-10.77-20.63c0-13.65,6.99-23.11,20.19-23.11
			c13.26,0,20.2,9.41,20.2,23.11c0,9.92-3.79,17.31-10.86,20.63h17.82c-1.93-1.07-3.65-2.54-5.03-4.34l2.75-2.75
			c2.37,3.08,6.11,5.34,9.58,5.34c5.5,0,11.33-3.14,11.33-12.77v-28.67H195v28.39c0,7.92-2.81,12.49-6.9,14.79h14.41V177.96z
			 M260.7,164.89c5.89,0,10.01-2.04,12.77-5.45l2.86,2.86c-1.62,1.82-3.62,3.28-5.96,4.34h5.93v53.61h-12.91v-51.8
			c-0.87,0.08-1.76,0.13-2.69,0.13c-1.38,0-2.67-0.11-3.92-0.28v7.15l-27,29.05l-5.03,4.3v0.13h32.36v11.32h-50.63v-8.87l26.8-28.72
			l5.63-4.57v-0.13h-31.77v-9.93h-3.61v-44.57h31.36v3.69h-27.9l0.39,0.39v16.01l-0.39,0.33h25.26v3.74h-25.26l0.39,0.33v16.01
			l-0.39,0.39h27.9v2.3h15.9c-7.43-3.31-11.22-10.71-11.22-20.63c0-13.65,7.54-23.11,21.18-23.11c7.04,0,12.16,2.31,15.68,6.27
			l-2.97,2.92c-2.7-3.41-6.77-5.5-12.71-5.5c-12.16,0-17.17,8.91-17.17,19.42C243.58,156.36,248.42,164.89,260.7,164.89z"/>
	</g>
</g>
<g>
	<polygon points="52.2,310.87 56.03,310.87 58.28,297.48 	"/>
	<path d="M92.46,251.01H32.69v59.86h13.48l11.07-24.42c-1.79-1.75-2.91-4.18-2.91-6.88c0-5.31,4.31-9.62,9.62-9.62
		c5.31,0,9.62,4.31,9.62,9.62c0,4.86-3.62,8.84-8.3,9.49l-3.66,21.82h30.85V251.01z"/>
	<path d="M35.65,334.08c-0.63,1.38-0.01,3.01,1.37,3.64c1.38,0.63,3.01,0.02,3.64-1.37l11.55-25.48h-6.04L35.65,334.08z"/>
	<path d="M51.21,339.57c-0.23,1.38,0.6,2.69,1.91,3.08c0.11,0.03,0.23,0.06,0.35,0.08c1.5,0.25,2.91-0.76,3.16-2.25l4.97-29.61
		h-5.57L51.21,339.57z"/>
	<path d="M65.26,289.05l1.92-11.45c0.23-1.36-0.59-2.68-1.91-3.08c-1.32-0.4-2.74,0.24-3.31,1.49l-4.73,10.43
		c1.73,1.69,4.09,2.74,6.71,2.74C64.4,289.19,64.83,289.11,65.26,289.05z"/>
</g>
<g>
	<polygon points="307.49,310.87 303.66,310.87 301.42,297.48 	"/>
	<path d="M267.24,251.01H327v59.86h-13.48l-11.07-24.42c1.79-1.75,2.91-4.18,2.91-6.88c0-5.31-4.31-9.62-9.62-9.62
		c-5.31,0-9.62,4.31-9.62,9.62c0,4.86,3.62,8.84,8.3,9.49l3.66,21.82h-30.85V251.01z"/>
	<path d="M324.05,334.08c0.63,1.38,0.01,3.01-1.37,3.64c-1.38,0.63-3.01,0.02-3.64-1.37l-11.55-25.48h6.04L324.05,334.08z"/>
	<path d="M308.48,339.57c0.23,1.38-0.6,2.69-1.91,3.08c-0.11,0.03-0.23,0.06-0.35,0.08c-1.5,0.25-2.91-0.76-3.16-2.25l-4.97-29.61
		h5.57L308.48,339.57z"/>
	<path d="M294.43,289.05l-1.92-11.45c-0.23-1.36,0.59-2.68,1.91-3.08c1.32-0.4,2.74,0.24,3.31,1.49l4.73,10.43
		c-1.73,1.69-4.09,2.74-6.71,2.74C295.29,289.19,294.86,289.11,294.43,289.05z"/>
</g>
</svg>
