<svg width="127" height="137" viewBox="0 0 127 137" fill="none" xmlns="http://www.w3.org/2000/svg">
<path d="M126.267 46.2253C126.215 46.1904 126.18 46.1904 126.145 46.1904C125.744 46.0159 125.326 45.8937 124.907 45.8414C124.907 45.8763 124.942 45.9112 124.977 45.9112C124.192 46.0333 123.703 46.6965 123.006 47.0107C122.221 47.3772 121.366 47.1154 120.546 47.2201C119.639 47.3422 118.75 47.8309 117.843 48.0578C116.918 48.3021 116.151 48.7559 115.261 49.07C114.634 49.2969 113.587 49.2969 113.203 48.6337C113.099 48.4417 113.256 48.2149 113.238 48.0054C113.203 47.6389 113.029 47.2201 112.837 46.8885C112.366 46.0333 111.389 45.5272 110.692 44.8641C109.994 44.2009 109.331 43.5028 108.529 42.9618C107.674 42.3684 106.907 41.967 106.296 41.0944C105.808 40.3963 105.442 39.6284 104.901 38.9827C104.255 38.2148 103.296 37.8134 102.668 37.0455C102.162 36.4347 102.11 35.6494 101.691 35.0037C101.29 34.3579 100.54 34.1311 100.034 33.6075C99.7379 33.2934 99.8077 32.7 99.7728 32.2986C99.581 29.9251 97.7321 28.6511 96.4937 26.8187C96.0576 26.1729 96.2495 25.5098 96.1274 24.7942C95.9879 23.9914 95.4472 23.4504 94.8367 22.9618C94.1216 22.4033 93.4413 21.9146 92.9529 21.1293C92.3774 20.2218 91.9587 19.2445 91.5227 18.2672C92.3076 17.6912 93.4064 17.6738 93.4936 16.4696C93.5634 15.405 93.0925 14.2008 92.6739 13.241C91.9413 11.5656 90.6157 11.3561 88.9587 10.9897C87.668 10.7104 86.8482 10.2043 85.5749 10.85C84.4761 11.4085 83.5865 11.7924 82.3307 11.6354C81.0923 11.4783 79.9237 11.042 78.7376 10.7104C78.2143 10.5708 77.726 10.4661 77.2376 10.2043C76.8015 9.95999 76.3655 9.6284 75.8597 9.55859C75.3015 9.06993 73.9759 9.38407 73.1387 9.29681C73.1038 9.20955 72.9991 8.7907 72.9817 8.72089C72.9468 8.73834 72.8945 8.7558 72.8422 8.73834C72.8422 8.45911 72.7375 8.21478 72.6852 8.00536C71.3596 7.46434 69.3014 7.84829 68.6037 9.20955C68.22 9.95999 68.6735 10.85 68.2723 11.5656C67.6967 12.5952 66.4932 12.1938 65.6211 11.9146C65.0455 11.2689 63.4932 10.9897 62.8304 11.426C62.6559 11.4434 62.2897 11.3387 62.028 11.1816C62.0455 11.0246 62.0455 10.6057 61.9757 10.4835C61.9757 10.4835 61.6792 10.0822 61.6792 10.2567C61.6792 10.152 61.6966 10.0472 61.6966 9.94253C61.6966 9.90763 61.2955 9.71566 61.2606 9.6982C61.1385 9.6284 60.9989 9.55859 60.8594 9.50623C60.5629 9.38407 60.2838 9.227 60.0222 9.05248C59.7082 8.98267 59.4466 8.86051 59.1501 8.73834C58.8361 8.61618 58.5047 8.54637 58.1908 8.47656C57.8245 8.3893 57.4582 8.30204 57.0745 8.21478C56.4814 8.04026 55.8884 7.83084 55.2779 7.69122C54.8244 7.58651 54.3709 7.60396 53.9349 7.39454C53.8651 7.32473 53.7604 7.22002 53.586 7.09785C53.2546 6.87098 53.2197 6.52193 53.2721 6.15544C53.2721 5.92857 53.3418 5.68424 53.4465 5.47481C53.5163 5.31774 53.6384 5.19558 53.6209 4.98616C53.6035 4.63711 53.307 4.34043 53.0976 4.07865C52.8883 3.79942 52.7662 3.38057 52.6442 3.06643C52.8883 2.76975 52.9756 2.42071 52.9581 1.98441C52.9581 2.01931 52.993 2.05421 52.993 2.03676C52.9756 1.86224 52.9581 1.86224 52.7837 1.74008C52.7139 1.32123 51.8418 0.553338 51.1616 0.658051C50.9174 0.431174 51.0744 0.500982 50.6906 0.466078C50.4116 0.22175 50.3243 0.239202 49.9406 0.13449C49.7139 -0.00512676 49.4174 -0.0574829 48.9987 0.0821334C48.6325 -0.0749349 48.1441 0.186846 48.179 0.22175C47.7778 0.745311 47.0976 1.18161 46.4348 0.902379C46.208 0.884927 46.051 0.902379 45.8243 0.919831C45.5626 0.535886 45.0743 0.413722 44.5859 0.535886C43.8708 -0.0225788 43.5045 0.850023 42.8417 0.954735C41.8998 1.09435 41.0277 0.448626 40.0684 0.675503C40.0335 0.623147 40.0335 0.553338 40.0684 0.500982C38.83 0.431174 36.3183 1.53065 35.3939 2.31599C34.8008 2.3509 33.8764 2.50797 33.1787 2.83956C33.1787 2.76975 33.1438 2.71739 33.109 2.68249C32.7252 2.83955 32.3764 2.8221 32.0101 3.03153C31.6089 2.94427 31.1729 3.04898 30.824 3.29331C30.6496 3.29331 30.2484 3.31076 30.0217 3.20605C29.7426 3.2235 29.01 3.15369 28.8705 3.11879C28.9228 3.04898 28.5914 2.97917 28.4693 2.97917C28.4519 2.68249 28.4868 2.75229 28.2252 2.40325C28.2426 2.42071 28.26 2.43816 28.2775 2.45561C28.3472 1.4783 27.1612 1.21652 26.4112 1.49575C25.7833 1.74008 25.6437 2.61268 25.3298 3.13624C24.4925 4.63711 23.0972 5.03851 21.632 5.71914C20.0622 6.45213 18.7192 7.63886 18.2831 9.34916C18.0738 10.1345 18.161 10.9198 17.7773 11.6528C17.3587 12.4556 16.6959 13.1363 16.0331 13.7296C15.3354 14.3579 14.6377 14.8989 13.7482 15.1956C12.8063 15.5097 12.004 15.8413 11.4284 16.6616C10.9051 17.412 10.3644 18.0228 9.63183 18.5464C8.95159 19.035 8.23646 19.4713 7.69576 20.1345C7.13761 20.7977 6.80621 21.6179 6.28294 22.3335C5.74224 23.0839 5.1492 23.7995 4.57361 24.5324C3.56197 25.8413 2.35846 27.3771 2.28869 29.0874C3.77127 29.419 2.81196 31.234 2.74219 32.2113C2.67242 32.9269 2.79451 33.6424 2.79451 34.3754C2.79451 35.056 2.60265 35.7366 2.3759 36.3824C1.93985 37.6564 1.34682 39.0525 0.579362 40.1869C0.195634 40.7628 -0.135766 41.2864 0.0560973 42.0019C0.265403 42.7349 0.527035 43.3806 0.631688 44.1311C0.840994 45.5447 1.29449 46.871 2.25381 47.9531C3.26545 49.1049 4.45152 50.1171 5.39339 51.3388C6.37015 52.5953 6.68411 54.0613 7.3818 55.4749C7.74808 56.2079 8.23646 56.8536 8.88182 57.3423C9.43997 57.7786 10.0853 58.1102 10.5563 58.6337C11.2714 59.4365 11.6726 60.4487 12.4575 61.1992C13.1028 61.7925 13.8703 62.2637 14.7598 62.3685C15.7017 62.4732 16.6261 62.2114 17.5157 61.9322C18.475 61.618 19.4866 61.4086 20.4983 61.3213C21.632 61.2166 22.7832 61.2166 23.8995 61.3911C24.8588 61.5482 25.8181 61.8449 26.7949 61.8798C28.0159 61.9321 28.9228 61.3562 30.0566 61.0246C31.0333 60.728 32.045 60.6756 33.0392 60.536C34.2078 60.3789 34.9927 59.995 36.0218 59.4191C36.7544 59.0177 37.5567 58.9129 38.2195 59.5063C38.8649 60.0822 39.4579 60.7454 40.0509 61.3737C40.5567 61.9321 41.1498 62.6477 41.8649 62.9095C42.9463 63.2934 44.1324 62.892 45.2487 63.2236C46.0336 63.4505 46.7487 64.0438 47.3243 64.6023C47.9697 65.2306 48.2836 65.8065 48.2138 66.714C48.1441 67.5866 47.8824 68.4941 48.0743 69.3667C47.6383 70.4836 46.8882 71.6704 47.0801 72.9269C47.2894 74.2707 48.5278 75.3528 49.4174 76.3126C51.336 78.372 52.9756 80.728 54.336 83.1887C54.6674 83.7995 55.0686 84.4104 55.2954 85.0735C55.5396 85.7542 55.3826 86.4697 55.3651 87.1503C55.3302 88.3022 55.9756 89.2097 56.464 90.187C57.7024 92.6826 55.3302 94.4453 55.1209 96.8537H54.9988C54.4581 98.0753 53.9698 99.3493 53.6732 100.658C53.2197 102.735 53.3767 104.847 54.2837 106.784C55.2256 108.791 56.9175 110.204 58.0338 112.089C58.6268 113.084 58.7663 114.166 58.871 115.3C58.9757 116.417 59.2547 117.36 59.5512 118.424C59.8478 119.472 59.7605 120.588 59.9873 121.653C60.2315 122.787 60.9466 123.73 61.5745 124.69C62.2897 125.772 63.0222 126.836 63.7722 127.901C64.2083 128.512 64.7839 129 65.2025 129.629C65.6909 130.362 65.3595 130.937 65.1327 131.688C64.9234 132.403 65.3769 133.049 65.813 133.573C66.7025 134.637 68.2723 136.086 69.7723 136.051C72.0224 135.981 73.941 134.69 76.2434 134.986C77.3946 135.126 78.2667 134.951 79.2609 134.323C80.0806 133.8 80.8655 133.346 81.7725 132.997C82.7144 132.63 83.6912 132.281 84.5633 131.74C85.4354 131.199 86.0807 130.396 86.7261 129.611C87.4761 128.686 88.1738 127.726 88.9064 126.801C89.5343 126.016 90.3366 125.318 90.8425 124.428C91.4006 123.433 91.1564 122.403 91.3134 121.339C91.4529 120.484 91.8541 119.506 92.4471 118.861C93.1274 118.11 94.2088 118.04 94.9762 117.412C95.639 116.871 95.9879 116.016 96.1449 115.196C96.4937 113.398 95.9181 111.636 96.11 109.855C96.267 108.337 97.4705 107.447 98.5519 106.522C100.261 105.091 101.971 103.625 103.924 102.526C105.407 101.705 107.081 100.955 107.918 99.3842C109 97.3772 108.302 94.9165 108.564 92.7524C108.686 91.6879 109.226 90.4837 108.511 89.5064C108.058 88.8955 107.308 88.6338 106.872 88.0229C106.139 87.0282 106.767 85.8938 106.645 84.8118C106.54 83.9217 105.878 83.2934 105.564 82.4906C104.988 81.0072 106.261 79.1922 107.081 78.0404C108.197 76.4522 109.697 75.2306 110.918 73.7297C111.581 72.9095 111.982 71.9322 112.593 71.077C113.168 70.3091 113.936 69.7507 114.599 69.0526C116.134 67.4295 117.354 65.7018 119.151 64.3231H118.889C120.32 64.2009 120.634 62.2114 120.982 61.1468C121.227 60.3964 121.645 59.8379 122.151 59.2445C122.901 58.3719 123.128 57.5342 123.337 56.4173C123.721 54.4103 125.552 53.0142 125.919 51.0246C126.128 49.8379 125.64 47.8309 127 47.1852C126.895 46.6791 126.564 46.5569 126.267 46.2253Z" fill="white"/>
<path d="M125.029 98.3894C124.802 98.0578 124.924 97.6215 124.959 97.255C125.046 95.9984 124.453 94.1834 123.424 93.4155L123.041 93.7995C120.93 94.6023 122.448 95.597 121.349 96.6616C121.279 96.5569 121.139 96.3998 121.07 96.2777C120.25 96.5918 119.884 97.3771 119.448 98.0927C118.855 99.0351 117.982 99.803 117.006 100.327C115.697 101.042 113.761 101.025 112.994 102.508C112.785 102.909 112.907 103.067 112.924 103.485C112.942 103.904 112.453 103.904 112.314 104.218C111.825 105.318 111.895 106.138 112.244 107.255C112.854 109.175 111.372 110.239 110.482 111.705C110.011 112.473 109.976 113.067 110.343 113.869C110.726 114.742 110.168 115.859 110.081 116.766C109.994 117.726 110.325 118.651 111.197 119.157C112 119.628 112.889 119.245 113.674 118.93C114.477 118.616 115.174 118.512 116.011 118.599C116.971 118.704 117.442 118.163 117.773 117.29C118.139 116.313 118.401 115.44 119.029 114.585C119.709 113.66 120.372 112.787 120.703 111.67C120.948 110.85 121.087 110.03 121.436 109.227C121.802 108.389 122.238 107.587 122.587 106.749C123.32 105.021 123.407 103.171 123.634 101.321C123.965 100.798 124.523 100.658 124.994 101.077C125.517 100.536 125.866 99.8902 125.64 99.1223C125.535 98.8082 125.203 98.6511 125.029 98.3894Z" fill="white"/>
</svg>
