<svg xmlns="http://www.w3.org/2000/svg" width="71" height="71" viewBox="0 0 71 71">
  <g id="Group_171" data-name="Group 171" transform="translate(-1378 -2537)">
    <circle id="Ellipse_34" data-name="Ellipse 34" cx="35.5" cy="35.5" r="35.5" transform="translate(1378 2537)" fill="#05c590"/>
    <g id="Group_153" data-name="Group 153" transform="translate(1393.814 2548.961)">
      <path id="Path_56" data-name="Path 56" d="M775.357,742.319a12.977,12.977,0,1,0-19.588-.133,13.015,13.015,0,0,1,3.254,8.254h-1.29a.8.8,0,1,0,0,1.6h1.3v3.086a2.4,2.4,0,0,0,2.367,2.4,4.3,4.3,0,0,0,8.448,0,2.4,2.4,0,0,0,2.367-2.4V752.04h1.3a.8.8,0,1,0,0-1.6h-1.3v-.175A12.1,12.1,0,0,1,775.357,742.319Zm-21.02-10.037a11.376,11.376,0,1,1,19.82,8.98,13.69,13.69,0,0,0-3.544,9v.175H766.42v-6.715a3.465,3.465,0,1,0-1.6,0v6.715h-4.193a14.615,14.615,0,0,0-3.646-9.3A11.317,11.317,0,0,1,754.337,732.282Zm11.284,9.946a1.866,1.866,0,1,1,1.867-1.866A1.868,1.868,0,0,1,765.621,742.228Zm0,17.2a2.709,2.709,0,0,1-2.584-1.9h5.168A2.71,2.71,0,0,1,765.621,759.43Zm4.992-4.3a.8.8,0,0,1-.8.8h-8.384a.8.8,0,0,1-.8-.8V752.04h9.984Z" transform="translate(-746.189 -714.46)" fill="#fff"/>
      <path id="Path_57" data-name="Path 57" d="M815.207,693.211a.8.8,0,0,0,.8-.8v-2.843a.8.8,0,1,0-1.6,0v2.843A.8.8,0,0,0,815.207,693.211Z" transform="translate(-795.776 -688.768)" fill="#fff"/>
      <path id="Path_58" data-name="Path 58" d="M873.287,716.685l-2.01,2.01a.8.8,0,0,0,1.131,1.131l2.01-2.01a.8.8,0,0,0-1.131-1.131Z" transform="translate(-841.246 -710.993)" fill="#fff"/>
      <path id="Path_59" data-name="Path 59" d="M749.822,840.153l-2.01,2.01a.8.8,0,0,0,1.131,1.131l2.01-2.01a.8.8,0,0,0-1.131-1.131Z" transform="translate(-742.12 -810.121)" fill="#fff"/>
      <path id="Path_60" data-name="Path 60" d="M898.146,783.283H895.3a.8.8,0,0,0,0,1.6h2.842a.8.8,0,1,0,0-1.6Z" transform="translate(-860.083 -764.651)" fill="#fff"/>
      <path id="Path_61" data-name="Path 61" d="M723.538,783.283H720.7a.8.8,0,1,0,0,1.6h2.842a.8.8,0,1,0,0-1.6Z" transform="translate(-719.896 -764.651)" fill="#fff"/>
      <path id="Path_62" data-name="Path 62" d="M872.407,840.153a.8.8,0,0,0-1.131,1.131l2.01,2.01a.8.8,0,1,0,1.131-1.131Z" transform="translate(-841.246 -810.121)" fill="#fff"/>
      <path id="Path_63" data-name="Path 63" d="M749.822,719.826a.8.8,0,1,0,1.131-1.131l-2.01-2.01a.8.8,0,0,0-1.131,1.131Z" transform="translate(-742.12 -710.993)" fill="#fff"/>
    </g>
  </g>
</svg>
