<svg width="53" height="38" viewBox="0 0 53 38" fill="none" xmlns="http://www.w3.org/2000/svg">
<path d="M46.375 0H6.625C2.96469 0 0 2.95739 0 6.6087V31.3913C0 35.0426 2.96469 38 6.625 38H46.375C50.0353 38 53 35.0426 53 31.3913V6.6087C53 2.95739 50.0353 0 46.375 0ZM45.7622 11.1852L27.5434 26.0548C27.2453 26.3026 26.8644 26.4348 26.5 26.4348C26.1356 26.4348 25.7547 26.3026 25.4566 26.0548L7.23781 11.1852C6.52562 10.607 6.42625 9.56609 7.00594 8.87217C7.58563 8.16174 8.62906 8.06261 9.34125 8.64087L26.5 22.6513L43.6753 8.64087C44.3875 8.06261 45.4309 8.16174 46.0106 8.87217C46.5738 9.56609 46.4744 10.607 45.7622 11.1852Z" fill="#0CCB97"/>
</svg>
