<svg width="216" height="216" viewBox="0 0 216 216" fill="none" xmlns="http://www.w3.org/2000/svg">
<circle cx="108" cy="108" r="108" fill="#0CCB97"/>
<path d="M170.267 86.2253C170.215 86.1904 170.18 86.1904 170.145 86.1904C169.744 86.0159 169.326 85.8937 168.907 85.8414C168.907 85.8763 168.942 85.9112 168.977 85.9112C168.192 86.0333 167.703 86.6965 167.006 87.0107C166.221 87.3772 165.366 87.1154 164.546 87.2201C163.639 87.3422 162.75 87.8309 161.843 88.0578C160.918 88.3021 160.151 88.7559 159.261 89.07C158.634 89.2969 157.587 89.2969 157.203 88.6337C157.099 88.4417 157.256 88.2149 157.238 88.0054C157.203 87.6389 157.029 87.2201 156.837 86.8885C156.366 86.0333 155.389 85.5272 154.692 84.8641C153.994 84.2009 153.331 83.5028 152.529 82.9618C151.674 82.3684 150.907 81.967 150.296 81.0944C149.808 80.3963 149.442 79.6284 148.901 78.9827C148.255 78.2148 147.296 77.8134 146.668 77.0455C146.162 76.4347 146.11 75.6494 145.691 75.0037C145.29 74.3579 144.54 74.1311 144.034 73.6075C143.738 73.2934 143.808 72.7 143.773 72.2986C143.581 69.9251 141.732 68.6511 140.494 66.8187C140.058 66.1729 140.25 65.5098 140.127 64.7942C139.988 63.9914 139.447 63.4504 138.837 62.9618C138.122 62.4033 137.441 61.9146 136.953 61.1293C136.377 60.2218 135.959 59.2445 135.523 58.2672C136.308 57.6912 137.406 57.6738 137.494 56.4696C137.563 55.405 137.092 54.2008 136.674 53.241C135.941 51.5656 134.616 51.3561 132.959 50.9897C131.668 50.7104 130.848 50.2043 129.575 50.85C128.476 51.4085 127.587 51.7924 126.331 51.6354C125.092 51.4783 123.924 51.042 122.738 50.7104C122.214 50.5708 121.726 50.4661 121.238 50.2043C120.802 49.96 120.365 49.6284 119.86 49.5586C119.302 49.0699 117.976 49.3841 117.139 49.2968C117.104 49.2095 116.999 48.7907 116.982 48.7209C116.947 48.7383 116.894 48.7558 116.842 48.7383C116.842 48.4591 116.738 48.2148 116.685 48.0054C115.36 47.4643 113.301 47.8483 112.604 49.2095C112.22 49.96 112.673 50.85 112.272 51.5656C111.697 52.5952 110.493 52.1938 109.621 51.9146C109.046 51.2689 107.493 50.9897 106.83 51.426C106.656 51.4434 106.29 51.3387 106.028 51.1816C106.045 51.0246 106.045 50.6057 105.976 50.4835C105.976 50.4835 105.679 50.0822 105.679 50.2567C105.679 50.152 105.697 50.0472 105.697 49.9425C105.697 49.9076 105.295 49.7157 105.261 49.6982C105.138 49.6284 104.999 49.5586 104.859 49.5062C104.563 49.3841 104.284 49.227 104.022 49.0525C103.708 48.9827 103.447 48.8605 103.15 48.7383C102.836 48.6162 102.505 48.5464 102.191 48.4766C101.824 48.3893 101.458 48.302 101.074 48.2148C100.481 48.0403 99.8884 47.8308 99.2779 47.6912C98.8244 47.5865 98.3709 47.604 97.9349 47.3945C97.8651 47.3247 97.7604 47.22 97.586 47.0979C97.2546 46.871 97.2197 46.5219 97.2721 46.1554C97.2721 45.9286 97.3418 45.6842 97.4465 45.4748C97.5163 45.3177 97.6384 45.1956 97.6209 44.9862C97.6035 44.6371 97.307 44.3404 97.0976 44.0786C96.8883 43.7994 96.7662 43.3806 96.6442 43.0664C96.8883 42.7697 96.9756 42.4207 96.9581 41.9844C96.9581 42.0193 96.993 42.0542 96.993 42.0368C96.9756 41.8622 96.9581 41.8622 96.7837 41.7401C96.7139 41.3212 95.8418 40.5533 95.1616 40.6581C94.9174 40.4312 95.0744 40.501 94.6906 40.4661C94.4116 40.2217 94.3243 40.2392 93.9406 40.1345C93.7139 39.9949 93.4174 39.9425 92.9987 40.0821C92.6325 39.9251 92.1441 40.1868 92.179 40.2217C91.7778 40.7453 91.0976 41.1816 90.4348 40.9024C90.208 40.8849 90.051 40.9024 89.8243 40.9198C89.5626 40.5359 89.0743 40.4137 88.5859 40.5359C87.8708 39.9774 87.5045 40.85 86.8417 40.9547C85.8998 41.0944 85.0277 40.4486 84.0684 40.6755C84.0335 40.6231 84.0335 40.5533 84.0684 40.501C82.83 40.4312 80.3183 41.5307 79.3939 42.316C78.8008 42.3509 77.8764 42.508 77.1787 42.8396C77.1787 42.7697 77.1438 42.7174 77.109 42.6825C76.7252 42.8396 76.3764 42.8221 76.0101 43.0315C75.6089 42.9443 75.1729 43.049 74.824 43.2933C74.6496 43.2933 74.2484 43.3108 74.0217 43.206C73.7426 43.2235 73.01 43.1537 72.8705 43.1188C72.9228 43.049 72.5914 42.9792 72.4693 42.9792C72.4519 42.6825 72.4868 42.7523 72.2252 42.4033C72.2426 42.4207 72.26 42.4382 72.2775 42.4556C72.3472 41.4783 71.1612 41.2165 70.4112 41.4957C69.7833 41.7401 69.6437 42.6127 69.3298 43.1362C68.4925 44.6371 67.0972 45.0385 65.632 45.7191C64.0622 46.4521 62.7192 47.6389 62.2831 49.3492C62.0738 50.1345 62.161 50.9198 61.7773 51.6528C61.3587 52.4556 60.6959 53.1363 60.0331 53.7296C59.3354 54.3579 58.6377 54.8989 57.7482 55.1956C56.8063 55.5097 56.004 55.8413 55.4284 56.6616C54.9051 57.412 54.3644 58.0228 53.6318 58.5464C52.9516 59.035 52.2365 59.4713 51.6958 60.1345C51.1376 60.7977 50.8062 61.6179 50.2829 62.3335C49.7422 63.0839 49.1492 63.7995 48.5736 64.5324C47.562 65.8413 46.3585 67.3771 46.2887 69.0874C47.7713 69.419 46.812 71.234 46.7422 72.2113C46.6724 72.9269 46.7945 73.6424 46.7945 74.3754C46.7945 75.056 46.6027 75.7366 46.3759 76.3824C45.9398 77.6564 45.3468 79.0525 44.5794 80.1869C44.1956 80.7628 43.8642 81.2864 44.0561 82.0019C44.2654 82.7349 44.527 83.3806 44.6317 84.1311C44.841 85.5447 45.2945 86.871 46.2538 87.9531C47.2655 89.1049 48.4515 90.1171 49.3934 91.3388C50.3702 92.5953 50.6841 94.0613 51.3818 95.4749C51.7481 96.2079 52.2365 96.8536 52.8818 97.3423C53.44 97.7786 54.0853 98.1102 54.5563 98.6337C55.2714 99.4365 55.6726 100.449 56.4575 101.199C57.1028 101.793 57.8703 102.264 58.7598 102.368C59.7017 102.473 60.6261 102.211 61.5157 101.932C62.475 101.618 63.4866 101.409 64.4983 101.321C65.632 101.217 66.7832 101.217 67.8995 101.391C68.8588 101.548 69.8181 101.845 70.7949 101.88C72.0159 101.932 72.9228 101.356 74.0566 101.025C75.0333 100.728 76.045 100.676 77.0392 100.536C78.2078 100.379 78.9927 99.995 80.0218 99.4191C80.7544 99.0177 81.5567 98.9129 82.2195 99.5063C82.8649 100.082 83.4579 100.745 84.0509 101.374C84.5567 101.932 85.1498 102.648 85.8649 102.909C86.9463 103.293 88.1324 102.892 89.2487 103.224C90.0336 103.45 90.7487 104.044 91.3243 104.602C91.9697 105.231 92.2836 105.807 92.2138 106.714C92.1441 107.587 91.8824 108.494 92.0743 109.367C91.6383 110.484 90.8882 111.67 91.0801 112.927C91.2894 114.271 92.5278 115.353 93.4174 116.313C95.336 118.372 96.9756 120.728 98.336 123.189C98.6674 123.8 99.0686 124.41 99.2954 125.074C99.5396 125.754 99.3826 126.47 99.3651 127.15C99.3302 128.302 99.9756 129.21 100.464 130.187C101.702 132.683 99.3302 134.445 99.1209 136.854H98.9988C98.4581 138.075 97.9698 139.349 97.6732 140.658C97.2197 142.735 97.3767 144.847 98.2837 146.784C99.2256 148.791 100.917 150.204 102.034 152.089C102.627 153.084 102.766 154.166 102.871 155.3C102.976 156.417 103.255 157.36 103.551 158.424C103.848 159.472 103.761 160.588 103.987 161.653C104.231 162.787 104.947 163.73 105.575 164.69C106.29 165.772 107.022 166.836 107.772 167.901C108.208 168.512 108.784 169 109.203 169.629C109.691 170.362 109.359 170.937 109.133 171.688C108.923 172.403 109.377 173.049 109.813 173.573C110.703 174.637 112.272 176.086 113.772 176.051C116.022 175.981 117.941 174.69 120.243 174.986C121.395 175.126 122.267 174.951 123.261 174.323C124.081 173.8 124.866 173.346 125.773 172.997C126.714 172.63 127.691 172.281 128.563 171.74C129.435 171.199 130.081 170.396 130.726 169.611C131.476 168.686 132.174 167.726 132.906 166.801C133.534 166.016 134.337 165.318 134.842 164.428C135.401 163.433 135.156 162.403 135.313 161.339C135.453 160.484 135.854 159.506 136.447 158.861C137.127 158.11 138.209 158.04 138.976 157.412C139.639 156.871 139.988 156.016 140.145 155.196C140.494 153.398 139.918 151.636 140.11 149.855C140.267 148.337 141.47 147.447 142.552 146.522C144.261 145.091 145.971 143.625 147.924 142.526C149.407 141.705 151.081 140.955 151.918 139.384C153 137.377 152.302 134.917 152.564 132.752C152.686 131.688 153.226 130.484 152.511 129.506C152.058 128.896 151.308 128.634 150.872 128.023C150.139 127.028 150.767 125.894 150.645 124.812C150.54 123.922 149.878 123.293 149.564 122.491C148.988 121.007 150.261 119.192 151.081 118.04C152.197 116.452 153.697 115.231 154.918 113.73C155.581 112.909 155.982 111.932 156.593 111.077C157.168 110.309 157.936 109.751 158.599 109.053C160.134 107.43 161.354 105.702 163.151 104.323H162.889C164.32 104.201 164.634 102.211 164.982 101.147C165.227 100.396 165.645 99.8379 166.151 99.2445C166.901 98.3719 167.128 97.5342 167.337 96.4173C167.721 94.4103 169.552 93.0142 169.919 91.0246C170.128 89.8379 169.64 87.8309 171 87.1852C170.895 86.6791 170.564 86.5569 170.267 86.2253Z" fill="white"/>
<path d="M169.029 138.389C168.802 138.058 168.924 137.621 168.959 137.255C169.046 135.998 168.453 134.183 167.424 133.416L167.041 133.799C164.93 134.602 166.448 135.597 165.349 136.662C165.279 136.557 165.139 136.4 165.07 136.278C164.25 136.592 163.884 137.377 163.448 138.093C162.855 139.035 161.982 139.803 161.006 140.327C159.697 141.042 157.761 141.025 156.994 142.508C156.785 142.909 156.907 143.067 156.924 143.485C156.942 143.904 156.453 143.904 156.314 144.218C155.825 145.318 155.895 146.138 156.244 147.255C156.854 149.175 155.372 150.239 154.482 151.705C154.011 152.473 153.976 153.067 154.343 153.869C154.726 154.742 154.168 155.859 154.081 156.766C153.994 157.726 154.325 158.651 155.197 159.157C156 159.628 156.889 159.245 157.674 158.93C158.477 158.616 159.174 158.512 160.011 158.599C160.971 158.704 161.442 158.163 161.773 157.29C162.139 156.313 162.401 155.44 163.029 154.585C163.709 153.66 164.372 152.787 164.703 151.67C164.948 150.85 165.087 150.03 165.436 149.227C165.802 148.389 166.238 147.587 166.587 146.749C167.32 145.021 167.407 143.171 167.634 141.321C167.965 140.798 168.523 140.658 168.994 141.077C169.517 140.536 169.866 139.89 169.64 139.122C169.535 138.808 169.203 138.651 169.029 138.389Z" fill="white"/>
</svg>
