<svg width="94" height="94" viewBox="0 0 94 94" fill="none" xmlns="http://www.w3.org/2000/svg">
<circle cx="46.9" cy="46.9" r="46.9" fill="white"/>
<path d="M66.375 28H26.625C22.9647 28 20 30.9574 20 34.6087V59.3913C20 63.0426 22.9647 66 26.625 66H66.375C70.0353 66 73 63.0426 73 59.3913V34.6087C73 30.9574 70.0353 28 66.375 28ZM65.7622 39.1852L47.5434 54.0548C47.2453 54.3026 46.8644 54.4348 46.5 54.4348C46.1356 54.4348 45.7547 54.3026 45.4566 54.0548L27.2378 39.1852C26.5256 38.607 26.4263 37.5661 27.0059 36.8722C27.5856 36.1617 28.6291 36.0626 29.3412 36.6409L46.5 50.6513L63.6753 36.6409C64.3875 36.0626 65.4309 36.1617 66.0106 36.8722C66.5738 37.5661 66.4744 38.607 65.7622 39.1852Z" fill="#0CCB97"/>
</svg>
