<svg width="51" height="50" viewBox="0 0 51 50" fill="none" xmlns="http://www.w3.org/2000/svg">
<path d="M41.3667 31.5974C39.5963 29.8433 37.3667 29.8433 35.6126 31.5974C34.2684 32.9417 32.9241 34.2696 31.5963 35.6302C31.2356 36.0073 30.9241 36.0893 30.4815 35.827C29.6126 35.3515 28.6782 34.9745 27.8422 34.4499C23.9405 31.9909 20.6618 28.827 17.7602 25.286C16.3176 23.5155 15.0389 21.6302 14.1536 19.4991C13.9733 19.0729 14.0061 18.7942 14.3504 18.4335C15.6946 17.1384 17.0061 15.7942 18.334 14.4663C20.1864 12.6138 20.1864 10.4335 18.3176 8.56466C17.2684 7.49909 16.2192 6.4663 15.1536 5.40073C14.0881 4.30237 13.0061 3.204 11.9077 2.12204C10.1372 0.384333 7.90773 0.384332 6.15363 2.13843C4.79297 3.4663 3.4815 4.84335 2.10445 6.15482C0.825762 7.36794 0.186417 8.84335 0.0388764 10.5811C-0.174238 13.4007 0.514286 16.0565 1.4815 18.6466C3.4815 24.0073 6.51429 28.7778 10.1864 33.1548C15.1536 39.0565 21.0881 43.745 28.0225 47.1056C31.1536 48.6302 34.3831 49.7942 37.9077 49.9745C40.334 50.1056 42.4323 49.4991 44.1208 47.6138C45.2684 46.3188 46.5799 45.1384 47.793 43.9089C49.5963 42.0729 49.6127 39.8597 47.8094 38.0401C45.6946 35.8925 43.5307 33.745 41.3667 31.5974Z" fill="#0CCB97"/>
<path d="M49.8587 22.2366C45.4652 12.1383 37.58 4.2858 27.6455 0.121867C26.8095 -0.222396 25.875 0.18744 25.5308 1.0399C25.2029 1.89236 25.5964 2.85957 26.416 3.22023C35.58 7.05629 42.8587 14.3022 46.9078 23.6137C47.1701 24.2366 47.7603 24.5973 48.3832 24.5973C48.5964 24.5973 48.8259 24.5481 49.039 24.4497C49.8587 24.0727 50.2357 23.0891 49.8587 22.2366Z" fill="#0CCB97"/>
<path d="M25.5798 12.1221C31.1372 14.4499 35.547 18.827 38.006 24.4663C38.2683 25.0565 38.8421 25.4171 39.4322 25.4171C39.6453 25.4171 39.8585 25.368 40.0716 25.2696C40.8585 24.9089 41.2191 23.9581 40.8585 23.1385C38.0716 16.745 33.0552 11.7614 26.7601 9.13845C25.9568 8.81058 25.0552 9.20403 24.7273 10.0237C24.3831 10.8598 24.7765 11.7942 25.5798 12.1221Z" fill="#0CCB97"/>
</svg>
