<svg width="94" height="94" viewBox="0 0 94 94" fill="none" xmlns="http://www.w3.org/2000/svg">
<circle cx="46.9" cy="46.9" r="46.9" fill="white"/>
<path d="M63.3667 53.5974C61.5963 51.8433 59.3667 51.8433 57.6126 53.5974C56.2684 54.9417 54.9241 56.2696 53.5963 57.6302C53.2356 58.0073 52.9241 58.0893 52.4815 57.827C51.6126 57.3515 50.6782 56.9745 49.8422 56.4499C45.9405 53.9909 42.6618 50.827 39.7602 47.286C38.3176 45.5155 37.0389 43.6302 36.1536 41.4991C35.9733 41.0729 36.0061 40.7942 36.3504 40.4335C37.6946 39.1384 39.0061 37.7942 40.334 36.4663C42.1864 34.6138 42.1864 32.4335 40.3176 30.5647C39.2684 29.4991 38.2192 28.4663 37.1536 27.4007C36.0881 26.3024 35.0061 25.204 33.9077 24.122C32.1372 22.3843 29.9077 22.3843 28.1536 24.1384C26.793 25.4663 25.4815 26.8433 24.1045 28.1548C22.8258 29.3679 22.1864 30.8433 22.0389 32.5811C21.8258 35.4007 22.5143 38.0565 23.4815 40.6466C25.4815 46.0073 28.5143 50.7778 32.1864 55.1548C37.1536 61.0565 43.0881 65.745 50.0225 69.1056C53.1536 70.6302 56.3831 71.7942 59.9077 71.9745C62.334 72.1056 64.4323 71.4991 66.1208 69.6138C67.2684 68.3188 68.5799 67.1384 69.793 65.9089C71.5963 64.0729 71.6127 61.8597 69.8094 60.0401C67.6946 57.8925 65.5307 55.745 63.3667 53.5974Z" fill="#0CCB97"/>
<path d="M71.8587 44.2366C67.4652 34.1383 59.58 26.2858 49.6455 22.1219C48.8095 21.7776 47.875 22.1874 47.5308 23.0399C47.2029 23.8924 47.5964 24.8596 48.416 25.2202C57.58 29.0563 64.8587 36.3022 68.9078 45.6137C69.1701 46.2366 69.7603 46.5973 70.3832 46.5973C70.5964 46.5973 70.8259 46.5481 71.039 46.4497C71.8587 46.0727 72.2357 45.0891 71.8587 44.2366Z" fill="#0CCB97"/>
<path d="M47.5798 34.1221C53.1372 36.4499 57.547 40.827 60.006 46.4663C60.2683 47.0565 60.8421 47.4171 61.4322 47.4171C61.6453 47.4171 61.8585 47.368 62.0716 47.2696C62.8585 46.9089 63.2191 45.9581 62.8585 45.1385C60.0716 38.745 55.0552 33.7614 48.7601 31.1385C47.9568 30.8106 47.0552 31.204 46.7273 32.0237C46.3831 32.8598 46.7765 33.7942 47.5798 34.1221Z" fill="#0CCB97"/>
</svg>
