<svg xmlns="http://www.w3.org/2000/svg" width="41.314" height="34.704" viewBox="0 0 41.314 34.704">
  <path id="Path_64" data-name="Path 64" d="M2492.587,478.427h-2.479v-2.479a.826.826,0,0,0-.826-.826c-11.07,0-15.075,2.969-16.526,5.158-1.45-2.189-5.455-5.158-16.525-5.158a.826.826,0,0,0-.826.826v2.479h-2.479a.826.826,0,0,0-.826.826V509a.826.826,0,0,0,.826.826h39.662a.826.826,0,0,0,.826-.826V479.253A.826.826,0,0,0,2492.587,478.427Zm-38.835,29.746V480.08h1.652v25.615a.826.826,0,0,0,.826.826c11.45,0,14.673,1.121,15.57,1.653Zm18.178-1.737c-1.972-.829-6.094-1.525-14.873-1.567V476.781c14.5.2,14.871,5.735,14.873,5.777Zm1.653-23.864c0-.056.374-5.59,14.873-5.792V504.87c-8.779.042-12.9.738-14.873,1.567Zm18.178,25.6h-18c.964-.571,4.273-1.653,15.521-1.653a.826.826,0,0,0,.826-.826V480.08h1.653Z" transform="translate(-2452.099 -475.122)" fill="#fff"/>
</svg>
